<svg width="188" height="183" viewBox="0 0 188 183" fill="none" xmlns="http://www.w3.org/2000/svg">
<path fill-rule="evenodd" clip-rule="evenodd" d="M95.4608 22.7643C114.231 21.1471 133.347 24.6987 149.274 34.742C165.913 45.2338 181.22 60.3056 185.43 79.4955C189.499 98.0439 178.096 115.568 170.858 133.128C164.239 149.189 159.978 167.838 145.224 177.043C130.777 186.057 112.412 181.882 95.4608 180.17C80.2527 178.635 64.6918 176.9 52.5108 167.682C40.4763 158.576 36.8309 143.205 29.3255 130.124C19.2547 112.572 -3.16894 97.8427 1.09208 78.0685C5.28283 58.6203 30.8122 53.5396 47.9984 43.4677C63.261 34.5233 77.8278 24.2835 95.4608 22.7643Z" fill="#2F80ED"/>
<path fill-rule="evenodd" clip-rule="evenodd" d="M110.174 0.403415C130.904 1.93031 154.053 12.2816 162.636 31.241C171.121 49.9867 145.862 70.3526 150.874 90.3133C155.26 107.783 188.215 110.605 187.076 128.582C186.046 144.848 160.383 145.064 146.835 154.093C134.099 162.58 125.252 177.241 110.174 179.831C93.8598 182.634 74.0014 180.935 63.0756 168.481C52.2118 156.099 61.6729 136.592 58.1182 120.497C55.0968 106.817 44.8871 95.9977 43.9789 82.0166C42.6619 61.7432 38.9996 38.8454 51.7898 23.0763C65.2807 6.44314 88.835 -1.16841 110.174 0.403415Z" fill="#518CFF" fill-opacity="0.57"/>
<path d="M68.0079 122.736H114.521V92.5412L91.2646 74.2354L67.971 92.5412L68.0079 122.736Z" fill="white"/>
<path d="M93.5256 94.854H107.518V113.524H93.5256V94.854Z" fill="#9EB6F4"/>
<path d="M97.0786 110.079V94.854H93.5256V113.524H107.518V110.079H97.0786Z" fill="#6E91EF"/>
<path d="M106.406 62.3871H111.045V73.9359H106.406V62.3871Z" fill="#E8AB4C"/>
<path d="M71.478 93.9428L93.9078 76.3158L91.2646 74.2354L67.971 92.5412L68.0079 122.736H71.5132L71.478 93.9428Z" fill="#CAD8EB"/>
<path d="M65.6823 122.736H116.876V127.185H65.6823V122.736Z" fill="#9EB6F4"/>
<path d="M106.491 73.9353L91.2645 62.6L76.8401 73.9358" fill="#6E91EF"/>
<path d="M75.0366 94.854H88.913V122.814H75.0366V94.854Z" fill="#EFC17A"/>
<path d="M78.034 119.56V94.854H75.0366V122.814H88.913V119.56H78.034Z" fill="#E8AB4C"/>
<path d="M97.0529 73.9358H119.173V92.5411H114.546L91.2645 74.2354L67.9709 92.5411H63.3565V73.9358H85.4244" fill="#9EB6F4"/>
<path d="M90.7811 73.9358L71.4594 89.1201H66.845V73.9358H63.3565V92.5411H67.9709L91.2645 74.2354L90.7811 73.9358Z" fill="#6E91EF"/>
<path d="M66.845 77.4463H69.1707V79.7719H66.845V77.4463Z" fill="white"/>
<path d="M66.845 82.0197H69.1707V86.7746H66.845V82.0197Z" fill="white"/>
<path d="M99.3528 105.195H101.679V110.119H99.3528V105.195Z" fill="white"/>
<path d="M99.3528 100.622H101.679V102.948H99.3528V100.622Z" fill="white"/>
<path d="M99.3528 94.8886H101.679V98.2559H99.3528V94.8886Z" fill="white"/>
<path d="M122.59 99.6126L107.518 107.637V117.103C107.518 124.134 111.161 130.663 117.144 134.356L122.59 137.717L128.036 134.356C134.019 130.663 137.662 124.134 137.662 117.103V107.637L122.59 99.6126Z" fill="#9CE3BF"/>
<path d="M120.4 132.649C114.417 128.956 110.774 124.961 110.774 115.396V105.93L122.615 99.6261L122.59 99.6126L107.519 107.637V117.103C107.519 124.134 111.161 130.663 117.144 134.356L122.59 137.717L125.6 135.859L120.4 132.649Z" fill="#52CD8D"/>
<path d="M122.649 127.373C127.159 127.373 130.816 123.716 130.816 119.206C130.816 114.695 127.159 111.039 122.649 111.039C118.138 111.039 114.481 114.695 114.481 119.206C114.481 123.716 118.138 127.373 122.649 127.373Z" fill="#EFC17A"/>
<path d="M66.8452 95.9705H69.1709V92.9547L91.2646 75.5919L113.359 92.9643V99.421H115.684V93.5812H120.336V72.6503H112.208V68.0786H109.883V72.6503H107.569V63.4273H109.883V65.7529H112.208V61.1016H105.243V71.4341L91.2457 61.0137L76.438 72.6504H62.1939V93.5814H66.8452V95.9705ZM64.5196 74.9761H85.4247V72.6504H80.2017L91.2838 63.9414L102.983 72.6504H97.053V74.9761H118.01V91.2557H114.948L91.2649 72.6337L67.5688 91.2557H64.5196V74.9761Z" fill="black"/>
<path d="M66.8452 98.296H69.1709V100.622H66.8452V98.296Z" fill="black"/>
<path d="M85.4506 86.7072H87.7762V89.0329H85.4506V86.7072Z" fill="black"/>
<path d="M90.1018 86.7072H92.4275V89.0329H90.1018V86.7072Z" fill="black"/>
<path d="M83.0989 107.588H85.4246V109.914H83.0989V107.588Z" fill="black"/>
<path d="M94.7533 86.7072H97.079V89.0329H94.7533V86.7072Z" fill="black"/>
<path d="M108.681 103.917V93.5688H92.363V114.564H103.985V112.239H94.6886V95.8944H106.356V103.917H108.681Z" fill="black"/>
<path d="M66.8453 123.777H103.985V121.451H90.0759V93.5688H73.8738V121.451H69.1708V102.948H66.8452V121.451H64.5197V128.536H106.31V126.21H66.8453V123.777ZM76.1995 95.8944H87.7503V121.451H76.1995V95.8944Z" fill="black"/>
<path d="M122.59 98.2952L106.356 106.939V117.103C106.356 124.463 110.27 131.479 116.534 135.345L122.59 139.083L128.647 135.345C134.91 131.479 138.824 124.463 138.824 117.103V106.939L122.59 98.2952ZM136.499 117.103C136.499 123.779 133.107 129.859 127.425 133.366L122.59 136.351L117.755 133.366C112.073 129.859 108.681 123.78 108.681 117.103V108.335L122.59 100.93L136.499 108.335V117.103Z" fill="black"/>
<path d="M113.319 119.206C113.319 124.35 117.504 128.536 122.649 128.536C127.793 128.536 131.979 124.35 131.979 119.206C131.979 114.061 127.793 109.876 122.649 109.876C117.504 109.876 113.319 114.061 113.319 119.206ZM122.649 112.201C126.511 112.201 129.653 115.343 129.653 119.206C129.653 123.068 126.511 126.21 122.649 126.21C118.786 126.21 115.644 123.068 115.644 119.206C115.644 115.343 118.786 112.201 122.649 112.201Z" fill="black"/>
<path d="M127.136 117.611L125.492 115.967L121.815 119.644L120.039 117.868L118.394 119.512L121.815 122.933L127.136 117.611Z" fill="black"/>
</svg>
